<svg xmlns="http://www.w3.org/2000/svg" viewBox="0 0 900 1200" fill="none">
  <rect width="900" height="1200" rx="44" fill="#0E1420"/>
  <rect x="42" y="42" width="816" height="1116" rx="30" fill="#111A2A" stroke="#2A344A"/>
  <rect x="82" y="92" width="736" height="56" rx="18" fill="#1A2436"/>
  <circle cx="122" cy="120" r="14" fill="#7C879D"/>
  <rect x="148" y="108" width="140" height="24" rx="10" fill="#E7ECF7"/>
  <rect x="82" y="188" width="510" height="120" rx="20" fill="#F8FAFF"/>
  <rect x="108" y="222" width="458" height="12" rx="6" fill="#A3AFC3"/>
  <rect x="108" y="246" width="320" height="12" rx="6" fill="#A3AFC3"/>
  <rect x="308" y="338" width="510" height="136" rx="20" fill="#1F2A3E"/>
  <rect x="334" y="380" width="458" height="12" rx="6" fill="#F8FAFF"/>
  <rect x="334" y="404" width="290" height="12" rx="6" fill="#F8FAFF"/>
  <rect x="82" y="504" width="570" height="148" rx="20" fill="#F8FAFF"/>
  <rect x="108" y="552" width="518" height="12" rx="6" fill="#A3AFC3"/>
  <rect x="108" y="576" width="420" height="12" rx="6" fill="#A3AFC3"/>
  <rect x="248" y="682" width="570" height="156" rx="20" fill="#1F2A3E"/>
  <rect x="274" y="734" width="518" height="12" rx="6" fill="#F8FAFF"/>
  <rect x="274" y="758" width="360" height="12" rx="6" fill="#F8FAFF"/>
  <rect x="82" y="866" width="736" height="246" rx="20" fill="#151F30"/>
  <rect x="116" y="920" width="668" height="12" rx="6" fill="#E7ECF7"/>
  <rect x="116" y="944" width="520" height="12" rx="6" fill="#E7ECF7"/>
  <rect x="116" y="968" width="452" height="12" rx="6" fill="#E7ECF7"/>
</svg>
