<svg xmlns="http://www.w3.org/2000/svg" viewBox="0 0 900 1200" fill="none">
  <rect width="900" height="1200" rx="44" fill="#0C121C"/>
  <rect x="42" y="42" width="816" height="1116" rx="30" fill="#111A29" stroke="#2C374B"/>
  <rect x="82" y="92" width="736" height="56" rx="18" fill="#1A2435"/>
  <circle cx="122" cy="120" r="14" fill="#7D889F"/>
  <rect x="148" y="108" width="156" height="24" rx="10" fill="#E9EEFB"/>
  <rect x="82" y="188" width="538" height="132" rx="20" fill="#F7FAFF"/>
  <rect x="108" y="230" width="486" height="12" rx="6" fill="#A4AEC2"/>
  <rect x="108" y="254" width="338" height="12" rx="6" fill="#A4AEC2"/>
  <rect x="242" y="348" width="576" height="144" rx="20" fill="#1E293E"/>
  <rect x="268" y="396" width="524" height="12" rx="6" fill="#F9FBFF"/>
  <rect x="268" y="420" width="408" height="12" rx="6" fill="#F9FBFF"/>
  <rect x="82" y="522" width="612" height="146" rx="20" fill="#F7FAFF"/>
  <rect x="108" y="570" width="560" height="12" rx="6" fill="#A4AEC2"/>
  <rect x="108" y="594" width="430" height="12" rx="6" fill="#A4AEC2"/>
  <rect x="278" y="696" width="540" height="146" rx="20" fill="#202C42"/>
  <rect x="304" y="744" width="488" height="12" rx="6" fill="#F9FBFF"/>
  <rect x="304" y="768" width="348" height="12" rx="6" fill="#F9FBFF"/>
  <rect x="82" y="870" width="736" height="242" rx="20" fill="#142032"/>
  <rect x="116" y="922" width="668" height="12" rx="6" fill="#E9EEFB"/>
  <rect x="116" y="946" width="564" height="12" rx="6" fill="#E9EEFB"/>
  <rect x="116" y="970" width="470" height="12" rx="6" fill="#E9EEFB"/>
</svg>
