<svg xmlns="http://www.w3.org/2000/svg" viewBox="0 0 900 1200" fill="none">
  <rect width="900" height="1200" rx="44" fill="#0D131E"/>
  <rect x="42" y="42" width="816" height="1116" rx="30" fill="#101827" stroke="#2A3446"/>
  <rect x="82" y="92" width="736" height="56" rx="18" fill="#1B2536"/>
  <circle cx="122" cy="120" r="14" fill="#7E89A0"/>
  <rect x="148" y="108" width="184" height="24" rx="10" fill="#EAF0FF"/>
  <rect x="82" y="188" width="626" height="136" rx="20" fill="#F6F9FF"/>
  <rect x="108" y="232" width="574" height="12" rx="6" fill="#A4AFC3"/>
  <rect x="108" y="256" width="360" height="12" rx="6" fill="#A4AFC3"/>
  <rect x="264" y="352" width="554" height="128" rx="20" fill="#212B3F"/>
  <rect x="290" y="394" width="502" height="12" rx="6" fill="#F8FAFF"/>
  <rect x="290" y="418" width="320" height="12" rx="6" fill="#F8FAFF"/>
  <rect x="82" y="508" width="510" height="132" rx="20" fill="#F6F9FF"/>
  <rect x="108" y="550" width="458" height="12" rx="6" fill="#A4AFC3"/>
  <rect x="108" y="574" width="300" height="12" rx="6" fill="#A4AFC3"/>
  <rect x="290" y="668" width="528" height="148" rx="20" fill="#1E293D"/>
  <rect x="316" y="716" width="476" height="12" rx="6" fill="#F8FAFF"/>
  <rect x="316" y="740" width="418" height="12" rx="6" fill="#F8FAFF"/>
  <rect x="82" y="846" width="736" height="266" rx="20" fill="#162133"/>
  <rect x="116" y="902" width="668" height="12" rx="6" fill="#EAF0FF"/>
  <rect x="116" y="926" width="536" height="12" rx="6" fill="#EAF0FF"/>
  <rect x="116" y="950" width="452" height="12" rx="6" fill="#EAF0FF"/>
  <rect x="116" y="974" width="420" height="12" rx="6" fill="#EAF0FF"/>
</svg>
